<?xml version="1.0" encoding="utf-8"?>
<!-- Generator: Adobe Illustrator 19.2.1, SVG Export Plug-In . SVG Version: 6.00 Build 0)  -->
<svg version="1.1" id="Layer_1" xmlns="http://www.w3.org/2000/svg" xmlns:xlink="http://www.w3.org/1999/xlink" x="0px" y="0px"
	 viewBox="0 0 270 82" style="enable-background:new 0 0 270 82;" xml:space="preserve">
<style type="text/css">
	.st0{enable-background:new    ;}
	.st1{fill:#F4333D;}
	.st2{clip-path:url(#SVGID_4_);fill:#FFFFFF;}
	.st3{fill:#FFFFFF;}
	.st4{clip-path:url(#SVGID_6_);fill:#FFFFFF;}
</style>
<title>Asset 3</title>
<g class="st0">
	<path d="M91.9-187h18.2v4.7H97.2v4.9h11.4v4.7H97.2v5.1h13.1v4.7H91.9C91.9-162.9,91.9-187,91.9-187z"/>
	<path d="M122.1-168.7l-3.7,5.8h-5.5l6.5-9.4l-6.2-9.1h5.6l3.4,5.4l3.5-5.4h5.5l-6.2,9l6.5,9.4h-5.6L122.1-168.7z"/>
	<path d="M134.6-181.4h5.2v2.7c1.3-1.7,3-3,5.8-3c4.3,0,8.4,3.4,8.4,9.5v0.1c0,6.2-4,9.5-8.4,9.5c-2.8,0-4.5-1.3-5.8-2.8v7.9h-5.2
		V-181.4z M148.7-172.1L148.7-172.1c0-3.1-2.1-5.2-4.5-5.2s-4.5,2-4.5,5.1v0.1c0,3.1,2,5.1,4.5,5.1S148.7-169,148.7-172.1z"/>
	<path d="M158.1-188.1h5.2v25.2h-5.2V-188.1z"/>
	<path d="M167.3-172L167.3-172c0-5.4,4.3-9.7,10-9.7s10,4.2,10,9.5v0.1c0,5.3-4.3,9.6-10,9.6C171.6-162.5,167.3-166.7,167.3-172z
		 M182.1-172L182.1-172c0-2.8-2-5.2-4.9-5.2c-3,0-4.8,2.3-4.8,5v0.1c0,2.7,2,5.1,4.9,5.1C180.4-167,182.1-169.3,182.1-172z"/>
	<path d="M191.1-181.4h5.2v3.7c1.1-2.5,2.8-4.2,5.9-4.1v5.5h-0.3c-3.5,0-5.6,2.1-5.6,6.5v6.8h-5.2L191.1-181.4L191.1-181.4z"/>
	<path d="M204.1-172L204.1-172c0-5.3,3.8-9.7,9.1-9.7c6.2,0,9,4.8,9,10c0,0.4,0,0.9-0.1,1.4h-12.9c0.5,2.4,2.2,3.6,4.5,3.6
		c1.8,0,3-0.6,4.5-1.9l3,2.7c-1.7,2.1-4.2,3.4-7.5,3.4C208.2-162.5,204.1-166.4,204.1-172z M217.1-173.6c-0.3-2.3-1.7-3.9-3.9-3.9
		s-3.6,1.6-4,3.9H217.1z"/>
</g>
<g class="st0">
	<path d="M90.3-125.1l3.1-3.8c2.2,1.8,4.4,2.9,7.2,2.9c2.2,0,3.5-0.9,3.5-2.3v-0.1c0-1.3-0.8-2-4.9-3.1c-4.9-1.2-8-2.6-8-7.4v0.1
		c0-4.4,3.5-7.3,8.4-7.3c3.5,0,6.5,1.1,9,3.1l-2.8,4c-2.1-1.5-4.2-2.4-6.3-2.4s-3.1,0.9-3.1,2.1v0.1c0,1.6,1,2.1,5.2,3.2
		c4.9,1.3,7.6,3,7.6,7.2v0.1c0,4.8-3.7,7.5-8.9,7.5C96.9-121.2,93.2-122.5,90.3-125.1z"/>
	<path d="M113.5-146.7h5.5v4.7h-5.5V-146.7z M113.7-140h5.2v18.5h-5.2V-140z"/>
	<path d="M123.8-140h5.2v2.6c1.2-1.6,2.8-3,5.4-3c4,0,6.3,2.6,6.3,6.9v12h-5.2v-10.4c0-2.5-1.2-3.8-3.2-3.8s-3.3,1.3-3.3,3.8v10.3
		h-5.2V-140z"/>
	<path d="M145.4-117.9l1.8-3.9c1.9,1.1,3.8,1.7,6.2,1.7c3.6,0,5.3-1.7,5.3-5v-0.9c-1.6,1.9-3.2,3-6,3c-4.3,0-8.2-3.1-8.2-8.6v-0.2
		c0-5.5,4-8.6,8.2-8.6c2.9,0,4.5,1.2,6,2.8v-2.4h5.2v14.3c0,3.3-0.8,5.7-2.3,7.3c-1.7,1.7-4.4,2.5-8,2.5
		C150.6-116,147.7-116.7,145.4-117.9z M158.7-131.7L158.7-131.7c0-2.6-2-4.3-4.5-4.3s-4.5,1.7-4.5,4.2v0.1c0,2.5,1.9,4.3,4.5,4.3
		S158.7-129.2,158.7-131.7z"/>
	<path d="M167.4-126.9L167.4-126.9c0-4.1,3.1-6,7.4-6c1.9,0,3.2,0.3,4.5,0.8v-0.3c0-2.2-1.3-3.4-4-3.4c-2,0-3.4,0.4-5.1,1l-1.3-4
		c2-0.9,4-1.5,7.2-1.5c2.9,0,4.9,0.8,6.2,2.1c1.4,1.4,2,3.4,2,5.9v10.7h-5.1v-2c-1.3,1.4-3,2.3-5.6,2.3
		C170.3-121.2,167.4-123.2,167.4-126.9z M179.5-128.1v-0.9c-0.9-0.4-2.1-0.7-3.3-0.7c-2.2,0-3.6,0.9-3.6,2.5v0.1
		c0,1.4,1.2,2.2,2.9,2.2C177.8-124.8,179.5-126.2,179.5-128.1z"/>
	<path d="M188.9-140h5.2v2.7c1.3-1.7,3-3,5.8-3c4.3,0,8.4,3.4,8.4,9.5l0,0c0,6.2-4,9.5-8.4,9.5c-2.8,0-4.5-1.3-5.8-2.8v7.9h-5.2
		V-140z M203.1-130.8L203.1-130.8c0-3.1-2.1-5.2-4.5-5.2s-4.5,2-4.5,5.1v0.1c0,3.1,2,5.1,4.5,5.1S203.1-127.7,203.1-130.8z"/>
	<path d="M211.3-130.7L211.3-130.7c0-5.4,4.3-9.7,10-9.7s10,4.2,10,9.5v0.1c0,5.3-4.3,9.6-10,9.6
		C215.5-121.2,211.3-125.4,211.3-130.7z M226.1-130.7L226.1-130.7c0-2.8-2-5.2-4.9-5.2c-3,0-4.8,2.3-4.8,5v0.1c0,2.7,2,5.1,4.9,5.1
		C224.3-125.7,226.1-128,226.1-130.7z"/>
	<path d="M235.1-140h5.2v3.7c1.1-2.5,2.8-4.2,5.9-4.1v5.5h-0.3c-3.5,0-5.6,2.1-5.6,6.5v6.8h-5.2L235.1-140L235.1-140z"/>
	<path d="M248-130.7L248-130.7c0-5.3,3.8-9.7,9.1-9.7c6.2,0,9,4.8,9,10c0,0.4,0,0.9-0.1,1.4h-12.9c0.5,2.4,2.2,3.6,4.5,3.6
		c1.8,0,3-0.6,4.5-1.9l3,2.7c-1.7,2.1-4.2,3.4-7.5,3.4C252.1-121.2,248-125,248-130.7z M261.1-132.2c-0.3-2.3-1.7-3.9-3.9-3.9
		c-2.2,0-3.6,1.5-4,3.9H261.1z"/>
</g>
<g>
	<g>
		<g>
			<circle id="SVGID_2_" class="st1" cx="42" cy="40.9" r="38.8"/>
		</g>
		<g>
			<g>
				<defs>
					<circle id="SVGID_3_" cx="42" cy="40.9" r="38.8"/>
				</defs>
				<clipPath id="SVGID_4_">
					<use xlink:href="#SVGID_3_"  style="overflow:visible;"/>
				</clipPath>
				<rect x="-8.6" y="42.6" class="st2" width="110.7" height="44.2"/>
			</g>
		</g>
	</g>
	<g>
		<path class="st3" d="M45.7,9.6c-4.7,0.5-8.2,2.5-10.7,6.4c-1.5,2.4-2.1,5-2.1,7.8c0.2,5.5,4.4,12,12.7,12.8
			c-4.1,1.8-11.1,0.9-15.5-4.3c-4.4-5.4-4.4-13.2,0.1-18.5C34.7,8.5,41.7,8,45.7,9.6z"/>
		<path class="st3" d="M53.4,31.1c-0.6,0.5-1.2,0.9-1.8,1.3c-0.1,0-0.1-0.1-0.2-0.1c0.2-0.4,0.2-0.8,0.4-1.2
			c0.3-0.7,0.2-1.2-0.5-1.6c-0.4-0.2-0.6-0.5-1-0.8c0-0.1,0.1-0.2,0.1-0.2c0.5,0,1.1,0,1.7,0c0.5,0,0.6-0.2,0.7-0.5
			c0.2-0.5,0.3-1.1,0.7-1.6c0.1,0.3,0.2,0.6,0.3,0.9c0.5,1.5,0.1,1.2,1.8,1.2c0.3,0,0.5,0,0.8,0c0,0.1,0.1,0.2,0.1,0.2
			c-0.5,0.3-0.8,0.7-1.3,1c-0.4,0.2-0.5,0.5-0.3,1c0.2,0.5,0.3,1.1,0.4,1.7C54.6,32,54,31.6,53.4,31.1z"/>
		<path class="st3" d="M43.8,31.1c-0.6,0.5-1.2,0.9-1.8,1.3c-0.1,0-0.1-0.1-0.2-0.1c0.2-0.5,0.3-1.2,0.5-1.6
			c0.2-0.4,0.1-0.7-0.3-0.9c-0.5-0.3-0.8-0.7-1.3-1c0-0.1,0-0.2,0.1-0.2c0.4,0,0.7,0,1.1,0c1.4,0,1,0.2,1.5-1.1
			c0.2-0.4,0.2-0.7,0.5-1.1c0.2,0.5,0.4,1.1,0.5,1.7c0.1,0.4,0.3,0.5,0.8,0.5c0.5,0,1.1,0,1.7,0.2c-0.3,0.2-0.6,0.6-1,0.8
			c-0.7,0.4-0.8,0.8-0.5,1.5c0.2,0.4,0.2,0.8,0.2,1.4C45,32,44.4,31.6,43.8,31.1z"/>
		<path class="st3" d="M41,17.3c0.2,0.5,0.4,1,0.5,1.5c0.1,0.5,0.4,0.7,0.9,0.7c0.5-0.1,1,0,1.5,0.2c-0.4,0.3-0.7,0.6-1.1,0.8
			c-0.6,0.4-0.7,0.8-0.5,1.4c0.2,0.4,0.3,0.8,0.3,1.5c-0.6-0.5-1.2-0.8-1.8-1.3c-0.6,0.5-1.2,0.9-1.8,1.3c-0.1,0-0.1-0.1-0.2-0.1
			c0.2-0.5,0.3-1.2,0.5-1.7c0.2-0.4,0.1-0.6-0.3-0.8c-0.5-0.3-0.9-0.7-1.3-1.2c0.5,0,1-0.1,1.5,0c0.6,0.1,0.9-0.2,1-0.8
			c0.1-0.5,0.3-1,0.5-1.5C41,17.3,41,17.3,41,17.3z"/>
		<path class="st3" d="M59.2,19.7c-0.5,0.3-0.8,0.7-1.3,1c-0.3,0.2-0.4,0.5-0.2,0.8c0.2,0.5,0.3,1.2,0.4,1.8
			c-0.6-0.5-1.2-0.8-1.8-1.3c-0.6,0.5-1.2,0.9-1.8,1.3c-0.1,0-0.1-0.1-0.2-0.1c0.2-0.5,0.3-1.2,0.5-1.7c0.2-0.4,0.1-0.6-0.3-0.8
			c-0.5-0.3-0.9-0.7-1.4-1.1c0-0.1,0.1-0.2,0.1-0.2c0.5,0,0.8-0.1,1.3,0c0.8,0.1,1.1-0.2,1.2-0.9c0.1-0.5,0.2-0.8,0.6-1.3
			c0.2,0.5,0.4,1.2,0.5,1.7c0.1,0.4,0.3,0.5,0.7,0.5c0.5,0,1.2,0,1.7,0C59.2,19.5,59.2,19.6,59.2,19.7z"/>
		<path class="st3" d="M51.6,14c-0.6,0.5-1.2,0.9-1.8,1.4c0.2,0.8,0.5,1.5,0.7,2.5c-0.6-0.5-1.1-0.8-1.5-1.2c-0.4-0.3-0.6-0.2-0.9,0
			c-0.4,0.4-0.9,0.7-1.5,1.2c0.2-0.6,0.2-1.1,0.4-1.4c0.4-0.8,0.2-1.3-0.5-1.8c-0.3-0.2-0.6-0.5-0.8-0.8c0.5,0,1,0,1.5,0
			c0.5,0.1,0.8-0.1,1-0.7c0.1-0.5,0.3-1,0.5-1.8c0.2,0.8,0.5,1.4,0.6,1.9c0.1,0.4,0.3,0.5,0.7,0.5c0.5,0,1.2,0,1.7,0
			C51.6,13.9,51.6,14,51.6,14z"/>
	</g>
	<g>
		<path class="st1" d="M42,5.9c19.2,0,35,15.6,35,35s-15.7,35-35,35S7,60.1,7,40.9S22.6,5.9,42,5.9 M42,2.1
			C20.5,2.1,3.2,19.5,3.2,40.9S20.5,79.7,42,79.7s38.8-17.3,38.8-38.8S63.4,2.1,42,2.1L42,2.1z"/>
	</g>
</g>
<g>
	<path d="M90.4,9.6h18.1v2.6H93.3v8.6h13.7v2.6H93.3V32h15.5v2.6H90.4V9.6z"/>
	<path d="M119.5,25.2l-7-9.1h3.1l5.5,7.2l5.5-7.2h3.1l-7,9l7.3,9.5h-3.2l-5.7-7.5l-5.8,7.5h-3.1L119.5,25.2z"/>
	<path d="M134.5,16.1h2.8v3.7c1.5-2.2,3.7-4.1,7.1-4.1c4.4,0,8.8,3.5,8.8,9.6v0.1c0,6-4.4,9.6-8.8,9.6c-3.4,0-5.7-1.9-7.1-3.9v9.3
		h-2.8V16.1z M150.3,25.4L150.3,25.4c0-4.4-3-7.2-6.5-7.2c-3.4,0-6.7,2.9-6.7,7.1v0.1c0,4.3,3.3,7.2,6.7,7.2
		C147.4,32.5,150.3,29.9,150.3,25.4z"/>
	<path d="M158.5,8.5h2.8v26.1h-2.8V8.5z"/>
	<path d="M166.5,25.4L166.5,25.4c0-5.3,4.1-9.7,9.7-9.7c5.5,0,9.6,4.4,9.6,9.6v0.1c0,5.2-4.1,9.7-9.7,9.7
		C170.5,35,166.5,30.7,166.5,25.4z M183,25.4L183,25.4c0-4-3-7.3-6.9-7.3c-4,0-6.8,3.3-6.8,7.2v0.1c0,4,2.9,7.2,6.8,7.2
		C180.2,32.6,183,29.3,183,25.4z"/>
	<path d="M190.8,16.1h2.8v4.8c1.4-3.1,4-5.3,7.5-5.2v3h-0.2c-4,0-7.3,2.9-7.3,8.5v7.4h-2.8V16.1z"/>
	<path d="M212.6,32.6c2.5,0,4.3-1,5.8-2.6l1.7,1.5c-1.9,2.1-4.1,3.5-7.6,3.5c-5.1,0-9.2-3.9-9.2-9.7c0-5.4,3.8-9.7,8.9-9.7
		c5.5,0,8.6,4.4,8.6,9.8c0,0.3,0,0.5,0,1h-14.7C206.5,30.4,209.4,32.6,212.6,32.6z M218,24.3c-0.3-3.4-2.3-6.2-5.9-6.2
		c-3.2,0-5.6,2.6-6,6.2H218z"/>
	<path d="M88.8,69.7l2.6-3.1c2.4,2.1,4.7,3.2,7.8,3.2c2.7,0,4.4-1.2,4.4-3.1v-0.1c0-1.8-1-2.7-5.6-3.8c-5.3-1.3-8.2-2.8-8.2-7.4
		v-0.1c0-4.2,3.5-7.2,8.5-7.2c3.6,0,6.5,1.1,9,3.1l-2.3,3.3c-2.2-1.7-4.5-2.5-6.7-2.5c-2.5,0-4,1.3-4,2.9V55c0,1.9,1.1,2.8,5.9,3.9
		c5.2,1.3,8,3.1,8,7.3v0.1c0,4.6-3.6,7.4-8.8,7.4C95.3,73.6,91.8,72.3,88.8,69.7z"/>
	<path d="M112.7,47.6h4.6v4.1h-4.6V47.6z M112.9,54.6h4.3v18.7h-4.3V54.6z"/>
	<path d="M122.7,54.6h4.3v2.9c1.2-1.8,2.9-3.3,5.8-3.3c4.2,0,6.7,2.8,6.7,7.2v11.9h-4.3V62.6c0-2.9-1.5-4.6-4-4.6
		c-2.5,0-4.2,1.7-4.2,4.6v10.5h-4.3V54.6z"/>
	<path d="M144.6,76.8l1.6-3.2c2,1.2,4.1,2,6.7,2c3.8,0,5.9-2,5.9-5.7v-1.5c-1.6,2-3.5,3.4-6.6,3.4c-4.4,0-8.5-3.3-8.5-8.7V63
		c0-5.5,4.1-8.8,8.5-8.8c3.1,0,5.1,1.5,6.5,3.2v-2.8h4.3v14.9c0,3.1-0.8,5.5-2.4,7c-1.7,1.7-4.3,2.5-7.7,2.5
		C149.9,79,147,78.2,144.6,76.8z M158.8,63L158.8,63c0-3.1-2.5-5.2-5.5-5.2c-3,0-5.3,2.1-5.3,5.1V63c0,3.1,2.4,5.2,5.3,5.2
		C156.3,68.2,158.8,66,158.8,63z"/>
	<path d="M179.8,73.3V71c-1.3,1.5-3.2,2.7-6.1,2.7c-3.5,0-6.7-2-6.7-5.8v-0.1c0-4.1,3.2-6.1,7.6-6.1c2.3,0,3.7,0.3,5.2,0.8v-0.4
		c0-2.6-1.6-4-4.6-4c-2.1,0-3.6,0.5-5.3,1.2l-1.2-3.4c2.1-0.9,4.1-1.6,7.1-1.6c5.5,0,8.2,2.9,8.2,7.9v11.1H179.8z M179.9,65.4
		c-1.1-0.4-2.6-0.7-4.3-0.7c-2.7,0-4.3,1.1-4.3,2.9v0.1c0,1.8,1.6,2.8,3.6,2.8c2.8,0,5-1.6,5-3.9V65.4z"/>
	<path d="M189.2,54.6h4.3v3.1c1.4-1.9,3.3-3.5,6.3-3.5c4.4,0,8.7,3.5,8.7,9.7V64c0,6.2-4.2,9.7-8.7,9.7c-3.1,0-5-1.6-6.3-3.3v8.6
		h-4.3V54.6z M204.1,64L204.1,64c0-3.7-2.4-6.1-5.3-6.1c-2.9,0-5.4,2.4-5.4,6V64c0,3.6,2.5,6,5.4,6C201.7,69.9,204.1,67.6,204.1,64z
		"/>
	<path d="M211.8,64L211.8,64c0-5.4,4.2-9.8,10-9.8c5.7,0,9.9,4.4,9.9,9.7V64c0,5.3-4.2,9.7-10,9.7C216.1,73.7,211.8,69.3,211.8,64z
		 M227.5,64L227.5,64c0-3.4-2.4-6.1-5.7-6.1c-3.4,0-5.6,2.7-5.6,5.9V64c0,3.3,2.4,6,5.7,6C225.3,70,227.5,67.2,227.5,64z"/>
	<path d="M236.1,54.6h4.3v4.2c1.2-2.8,3.3-4.7,6.6-4.6v4.5h-0.2c-3.8,0-6.4,2.4-6.4,7.4v7.1h-4.3V54.6z"/>
	<path d="M249.1,64L249.1,64c0-5.4,3.8-9.8,9.1-9.8c5.9,0,9,4.7,9,10c0,0.4,0,0.8-0.1,1.2h-13.7c0.5,3,2.6,4.7,5.4,4.7
		c2.1,0,3.6-0.8,5.1-2.2l2.5,2.2c-1.8,2.1-4.2,3.5-7.6,3.5C253.2,73.7,249.1,69.8,249.1,64z M262.9,62.6c-0.3-2.8-1.9-4.9-4.7-4.9
		c-2.6,0-4.5,2-4.8,4.9H262.9z"/>
</g>
<rect x="92.3" y="-97.3" style="fill:none;" width="181.7" height="71.3"/>
<text transform="matrix(1 0 0 1 92.3332 -72.5137)"><tspan x="0" y="0" style="font-family:'Gotham-Book'; font-size:34px;">Explore</tspan><tspan x="0" y="40" style="font-family:'Gotham-Medium'; font-size:34px;">Singapore</tspan></text>
<g>
	<g>
		<path d="M2.1,201.5l3.9-4.6c3.5,3.1,7.1,4.8,11.6,4.8c4,0,6.5-1.8,6.5-4.6v-0.1c0-2.6-1.5-4.1-8.3-5.6c-7.8-1.9-12.3-4.2-12.3-11
			v-0.1c0-6.3,5.3-10.7,12.6-10.7c5.4,0,9.6,1.6,13.4,4.6l-3.5,4.9c-3.3-2.5-6.6-3.8-10-3.8c-3.8,0-6,1.9-6,4.4v0.1
			c0,2.8,1.7,4.1,8.7,5.8c7.8,1.9,11.8,4.7,11.8,10.8v0.1c0,6.9-5.4,11-13.2,11C11.9,207.4,6.6,205.5,2.1,201.5z"/>
		<path d="M37.7,168.8h6.8v6.1h-6.8V168.8z M37.9,179.1h6.4v27.8h-6.4V179.1z"/>
		<path d="M52.6,179.1H59v4.3c1.8-2.6,4.4-4.9,8.7-4.9c6.3,0,9.9,4.2,9.9,10.7v17.7h-6.4v-15.8c0-4.3-2.2-6.8-5.9-6.8
			c-3.7,0-6.3,2.6-6.3,6.9v15.7h-6.4V179.1z"/>
		<path d="M85.2,212.1l2.4-4.8c2.9,1.8,6.1,2.9,9.9,2.9c5.7,0,8.8-2.9,8.8-8.5v-2.2c-2.3,3-5.2,5.1-9.8,5.1c-6.5,0-12.6-4.8-12.6-13
			v-0.1c0-8.2,6.2-13.1,12.6-13.1c4.7,0,7.6,2.2,9.7,4.7v-4.2h6.4v22.1c0,4.7-1.2,8.2-3.5,10.5c-2.5,2.5-6.4,3.7-11.4,3.7
			C93.1,215.4,88.8,214.2,85.2,212.1z M106.3,191.7v-0.1c0-4.6-3.7-7.7-8.2-7.7c-4.4,0-7.9,3.1-7.9,7.6v0.1c0,4.6,3.5,7.7,7.9,7.7
			C102.6,199.3,106.3,196.1,106.3,191.7z"/>
		<path d="M137.5,206.9v-3.4c-1.9,2.3-4.8,4-9,4c-5.3,0-9.9-3-9.9-8.6v-0.1c0-6.2,4.8-9.1,11.3-9.1c3.4,0,5.5,0.5,7.7,1.2v-0.5
			c0-3.8-2.4-5.9-6.8-5.9c-3.1,0-5.4,0.7-7.9,1.7l-1.7-5.1c3.1-1.4,6.1-2.3,10.6-2.3c8.2,0,12.2,4.3,12.2,11.7v16.5H137.5z
			 M137.7,195.2c-1.6-0.6-3.9-1.1-6.4-1.1c-4,0-6.4,1.6-6.4,4.3v0.1c0,2.6,2.4,4.1,5.4,4.1c4.2,0,7.4-2.4,7.4-5.8V195.2z"/>
		<path d="M151.4,179.1h6.4v4.6c2.1-2.9,4.9-5.2,9.4-5.2c6.6,0,13,5.2,13,14.4v0.1c0,9.2-6.3,14.4-13,14.4c-4.6,0-7.5-2.3-9.4-4.9
			v12.7h-6.4V179.1z M173.7,193v-0.1c0-5.4-3.6-8.9-7.9-8.9c-4.3,0-8.1,3.6-8.1,8.9v0.1c0,5.4,3.8,8.9,8.1,8.9
			C170.1,201.9,173.7,198.5,173.7,193z"/>
		<path d="M185.2,193.1V193c0-7.9,6.3-14.5,14.8-14.5c8.5,0,14.8,6.5,14.8,14.4v0.1c0,7.9-6.3,14.5-14.9,14.5
			C191.5,207.5,185.2,201,185.2,193.1z M208.5,193.1V193c0-4.9-3.5-8.9-8.5-8.9c-5.1,0-8.4,4-8.4,8.8v0.1c0,4.8,3.5,8.9,8.5,8.9
			C205.2,202,208.5,197.9,208.5,193.1z"/>
		<path d="M221.3,179.1h6.4v6.3c1.7-4.2,4.9-7,9.8-6.8v6.7h-0.4c-5.6,0-9.5,3.6-9.5,11v10.6h-6.4V179.1z"/>
		<path d="M240.6,193.1V193c0-7.9,5.6-14.5,13.6-14.5c8.8,0,13.3,6.9,13.3,15c0,0.6-0.1,1.2-0.1,1.8H247c0.7,4.5,3.9,7.1,8,7.1
			c3.1,0,5.3-1.2,7.5-3.3l3.7,3.3c-2.6,3.2-6.3,5.2-11.4,5.2C246.8,207.5,240.6,201.7,240.6,193.1z M261.2,191
			c-0.4-4.1-2.8-7.3-7.1-7.3c-3.9,0-6.6,3-7.2,7.3H261.2z"/>
	</g>
	<g>
		<g>
			<g>
				<circle id="SVGID_1_" class="st1" cx="200.8" cy="194" r="16.4"/>
			</g>
			<g>
				<g>
					<defs>
						<circle id="SVGID_5_" cx="200.8" cy="194" r="16.4"/>
					</defs>
					<clipPath id="SVGID_6_">
						<use xlink:href="#SVGID_5_"  style="overflow:visible;"/>
					</clipPath>
					<rect x="179.4" y="194.8" class="st4" width="46.7" height="18.6"/>
				</g>
			</g>
		</g>
		<g>
			<path class="st3" d="M202.3,180.8c-2,0.2-3.5,1.1-4.5,2.7c-0.6,1-0.9,2.1-0.9,3.3c0.1,2.3,1.9,5.1,5.3,5.4
				c-1.7,0.7-4.7,0.4-6.5-1.8c-1.9-2.3-1.9-5.6,0-7.8C197.7,180.4,200.7,180.1,202.3,180.8z"/>
			<path class="st3" d="M205.6,189.9c-0.3,0.2-0.5,0.4-0.8,0.5c0,0,0,0-0.1,0c0.1-0.2,0.1-0.4,0.2-0.5c0.1-0.3,0.1-0.5-0.2-0.7
				c-0.2-0.1-0.3-0.2-0.4-0.3c0,0,0-0.1,0-0.1c0.2,0,0.5,0,0.7,0c0.2,0,0.3-0.1,0.3-0.2c0.1-0.2,0.1-0.5,0.3-0.7
				c0,0.1,0.1,0.3,0.1,0.4c0.2,0.6,0,0.5,0.7,0.5c0.1,0,0.2,0,0.4,0c0,0,0,0.1,0,0.1c-0.2,0.1-0.4,0.3-0.5,0.4
				c-0.2,0.1-0.2,0.2-0.1,0.4c0.1,0.2,0.1,0.5,0.2,0.7C206.1,190.3,205.8,190.1,205.6,189.9z"/>
			<path class="st3" d="M201.5,189.9c-0.3,0.2-0.5,0.4-0.7,0.5c0,0,0,0-0.1,0c0.1-0.2,0.1-0.5,0.2-0.7c0.1-0.2,0-0.3-0.1-0.4
				c-0.2-0.1-0.4-0.3-0.5-0.4c0,0,0-0.1,0-0.1c0.2,0,0.3,0,0.5,0c0.6,0,0.4,0.1,0.6-0.5c0.1-0.2,0.1-0.3,0.2-0.5
				c0.1,0.2,0.2,0.5,0.2,0.7c0,0.2,0.1,0.2,0.3,0.2c0.2,0,0.5,0,0.7,0.1c-0.1,0.1-0.3,0.3-0.4,0.3c-0.3,0.2-0.4,0.4-0.2,0.6
				c0.1,0.2,0.1,0.4,0.1,0.6C202,190.3,201.8,190.1,201.5,189.9z"/>
			<path class="st3" d="M200.4,184.1c0.1,0.2,0.2,0.4,0.2,0.6c0,0.2,0.2,0.3,0.4,0.3c0.2,0,0.4,0,0.6,0.1c-0.2,0.1-0.3,0.3-0.5,0.4
				c-0.3,0.2-0.3,0.3-0.2,0.6c0.1,0.2,0.1,0.4,0.1,0.6c-0.3-0.2-0.5-0.4-0.8-0.5c-0.3,0.2-0.5,0.4-0.7,0.5c0,0,0,0-0.1,0
				c0.1-0.2,0.1-0.5,0.2-0.7c0.1-0.2,0-0.3-0.1-0.4c-0.2-0.1-0.4-0.3-0.5-0.5c0.2,0,0.4,0,0.6,0c0.3,0,0.4-0.1,0.4-0.3
				C200.1,184.5,200.2,184.3,200.4,184.1C200.3,184.1,200.4,184.1,200.4,184.1z"/>
			<path class="st3" d="M208,185.1c-0.2,0.1-0.4,0.3-0.5,0.4c-0.1,0.1-0.2,0.2-0.1,0.4c0.1,0.2,0.1,0.5,0.2,0.7
				c-0.3-0.2-0.5-0.4-0.8-0.6c-0.3,0.2-0.5,0.4-0.7,0.6c0,0,0,0-0.1,0c0.1-0.2,0.1-0.5,0.2-0.7c0.1-0.2,0-0.3-0.1-0.4
				c-0.2-0.1-0.4-0.3-0.6-0.5c0,0,0-0.1,0-0.1c0.2,0,0.4,0,0.5,0c0.3,0,0.5-0.1,0.5-0.4c0-0.2,0.1-0.4,0.3-0.5
				c0.1,0.2,0.2,0.5,0.2,0.7c0,0.2,0.1,0.2,0.3,0.2C207.6,185,207.8,185,208,185.1C208,185,208,185,208,185.1z"/>
			<path class="st3" d="M204.8,182.7c-0.3,0.2-0.5,0.4-0.7,0.6c0.1,0.3,0.2,0.6,0.3,1c-0.3-0.2-0.5-0.3-0.6-0.5
				c-0.2-0.1-0.3-0.1-0.4,0c-0.2,0.2-0.4,0.3-0.6,0.5c0.1-0.3,0.1-0.5,0.2-0.6c0.2-0.4,0.1-0.5-0.2-0.7c-0.1-0.1-0.3-0.2-0.4-0.4
				c0.2,0,0.4,0,0.6,0c0.2,0,0.4,0,0.4-0.3c0-0.2,0.1-0.4,0.2-0.7c0.1,0.3,0.2,0.6,0.3,0.8c0,0.2,0.1,0.2,0.3,0.2
				C204.3,182.6,204.6,182.6,204.8,182.7C204.8,182.7,204.8,182.7,204.8,182.7z"/>
		</g>
		<g>
			<path class="st1" d="M200.8,179.3c8.1,0,14.8,6.6,14.8,14.8c0,8.2-6.6,14.8-14.8,14.8c-8.1,0-14.8-6.6-14.8-14.8
				C186,185.9,192.6,179.3,200.8,179.3 M200.8,176.6c-9.6,0-17.4,7.8-17.4,17.4c0,9.6,7.8,17.4,17.4,17.4c9.6,0,17.4-7.8,17.4-17.4
				C218.2,184.4,210.4,176.6,200.8,176.6L200.8,176.6z"/>
		</g>
	</g>
</g>
<g>
	<path d="M4.1,142.3h13.1v1.9H6.1v6.2H16v1.9H6.1v6.4h11.2v1.9H4.1V142.3z"/>
	<path d="M25.2,153.6l-5.1-6.6h2.3l4,5.2l4-5.2h2.2l-5.1,6.5l5.3,6.9h-2.3l-4.2-5.5l-4.2,5.5h-2.2L25.2,153.6z"/>
	<path d="M36.1,147.1h2v2.7c1.1-1.6,2.7-3,5.1-3c3.2,0,6.4,2.5,6.4,7v0.1c0,4.4-3.2,7-6.4,7c-2.5,0-4.1-1.4-5.1-2.9v6.7h-2V147.1z
		 M47.6,153.8L47.6,153.8c0-3.2-2.2-5.2-4.7-5.2c-2.5,0-4.9,2.1-4.9,5.2v0.1c0,3.1,2.4,5.2,4.9,5.2C45.4,159,47.6,157.1,47.6,153.8z
		"/>
	<path d="M53.5,141.5h2v19h-2V141.5z"/>
	<path d="M59.3,153.8L59.3,153.8c0-3.8,3-7.1,7-7.1c4,0,7,3.2,7,7v0.1c0,3.8-3,7-7,7C62.2,160.8,59.3,157.6,59.3,153.8z M71.3,153.8
		L71.3,153.8c0-2.9-2.2-5.3-5-5.3c-2.9,0-4.9,2.4-4.9,5.2v0.1c0,2.9,2.1,5.2,5,5.2C69.2,159,71.3,156.7,71.3,153.8z"/>
	<path d="M76.9,147.1h2v3.5c1-2.2,2.9-3.8,5.5-3.7v2.2h-0.2c-2.9,0-5.3,2.1-5.3,6.2v5.4h-2V147.1z"/>
	<path d="M92.8,159.1c1.8,0,3.1-0.8,4.2-1.9l1.2,1.1c-1.4,1.5-3,2.5-5.5,2.5c-3.7,0-6.7-2.8-6.7-7c0-3.9,2.7-7,6.4-7
		c4,0,6.3,3.2,6.3,7.1c0,0.2,0,0.4,0,0.7H88.1C88.4,157.4,90.4,159.1,92.8,159.1z M96.7,153c-0.2-2.4-1.6-4.5-4.3-4.5
		c-2.3,0-4.1,1.9-4.4,4.5H96.7z"/>
</g>
</svg>
